<?xml version="1.0" standalone="no"?>
<!DOCTYPE svg PUBLIC "-//W3C//DTD SVG 20010904//EN"
 "http://www.w3.org/TR/2001/REC-SVG-20010904/DTD/svg10.dtd">
<svg version="1.0" xmlns="http://www.w3.org/2000/svg"
 width="1600.000000pt" height="1200.000000pt" viewBox="0 0 1600.000000 1200.000000"
 preserveAspectRatio="xMidYMid meet">
<metadata>
Created by potrace 1.16, written by Peter Selinger 2001-2019
</metadata>
<g transform="translate(0.000000,1200.000000) scale(0.100000,-0.100000)"
fill="#000000" stroke="none">
<path d="M3190 10369 c-32 -13 -68 -47 -85 -80 -8 -14 -61 -270 -120 -570 -58
-299 -142 -728 -186 -954 -44 -225 -109 -558 -144 -739 -36 -181 -68 -333 -72
-337 -4 -4 -233 -25 -509 -48 -275 -22 -514 -45 -530 -51 -37 -14 -71 -46 -92
-85 -19 -38 -19 -81 7 -385 11 -135 34 -409 51 -610 106 -1285 150 -1823 235
-2870 88 -1074 98 -1179 118 -1219 41 -84 92 -103 243 -90 55 5 293 24 529 44
237 19 732 60 1100 90 369 31 969 80 1335 110 366 30 1158 95 1760 145 602 50
1230 101 1395 115 165 13 1176 97 2246 185 1071 88 1973 160 2005 160 61 0
135 -13 834 -150 228 -44 462 -90 520 -101 58 -12 124 -19 147 -16 52 5 110
47 128 91 7 17 34 139 60 271 25 132 86 445 135 695 49 250 102 525 119 610
34 175 91 470 152 778 41 210 81 417 143 740 19 97 71 362 115 587 274 1401
257 1291 213 1352 -41 57 -81 68 -677 184 -313 60 -606 117 -650 125 -118 22
-115 21 -115 61 0 71 -55 142 -125 162 -24 6 -119 2 -317 -15 -156 -13 -306
-24 -334 -24 -41 0 -1025 188 -2794 535 -96 19 -326 63 -510 99 -184 36 -614
120 -955 186 -341 67 -780 152 -975 190 -195 38 -805 157 -1355 264 -550 107
-1440 281 -1977 386 -538 104 -992 190 -1010 189 -18 0 -44 -5 -58 -10z m642
-124 c326 -64 940 -183 1363 -266 424 -82 964 -188 1200 -234 237 -46 673
-131 970 -189 297 -58 990 -193 1540 -300 550 -107 1430 -279 1955 -381 525
-102 1056 -206 1180 -230 124 -24 308 -60 410 -80 326 -63 293 -53 286 -86 -7
-36 11 -39 20 -3 6 24 9 25 48 18 22 -3 520 -100 1104 -214 1052 -205 1064
-208 1094 -237 35 -35 47 -82 37 -138 -10 -50 -259 -1329 -424 -2175 -68 -349
-171 -880 -230 -1180 -58 -300 -110 -565 -115 -590 -5 -25 -48 -245 -96 -490
-47 -245 -93 -457 -101 -471 -21 -36 -68 -62 -112 -62 -20 0 -301 52 -626 116
-324 64 -788 154 -1030 201 -242 48 -464 91 -493 97 -52 10 -53 11 -47 40 8
37 -12 40 -21 3 -6 -24 -10 -26 -43 -21 -20 3 -373 71 -786 152 -412 80 -1117
217 -1565 305 -448 87 -1071 209 -1385 270 -313 61 -649 126 -745 145 -96 19
-362 70 -590 115 -228 45 -759 148 -1180 230 -421 82 -952 185 -1180 230 -590
115 -643 125 -1360 265 -355 68 -660 132 -677 141 -36 19 -56 45 -67 87 -6 27
17 151 284 1517 49 250 168 862 265 1360 97 498 214 1099 260 1335 46 237 98
504 116 594 30 152 34 165 65 196 18 19 43 35 56 38 13 2 24 5 25 6 1 0 269
-51 595 -114z m9665 -1712 c44 -21 73 -67 73 -117 0 -37 -1 -38 -27 -33 -285
52 -621 123 -598 125 80 8 454 40 483 41 19 0 50 -7 69 -16z m-10928 -951 c-6
-38 -14 -74 -18 -80 -3 -5 -208 -26 -456 -46 -247 -20 -455 -39 -460 -40 -8
-3 -5 -71 7 -217 9 -118 54 -657 98 -1199 172 -2097 207 -2510 212 -2515 3 -3
360 24 794 60 1983 164 4081 336 4929 406 l640 52 300 -58 c165 -32 295 -60
290 -61 -6 -2 -158 -15 -340 -29 -351 -29 -369 -33 -382 -83 -6 -27 43 -669
54 -698 3 -8 18 -22 34 -30 27 -13 71 -11 477 21 246 20 464 40 484 46 69 18
69 22 40 381 -14 175 -24 320 -21 322 3 3 44 -2 92 -11 67 -12 87 -19 87 -32
0 -27 20 -254 26 -298 5 -41 7 -43 38 -43 18 0 35 2 37 4 3 3 -1 67 -7 143
-16 176 -16 199 -5 188 5 -6 15 -81 22 -167 l12 -158 32 0 31 0 -13 152 c-7
83 -10 154 -7 157 12 12 22 -27 28 -113 11 -147 18 -196 29 -196 10 0 6 99
-10 244 -4 39 -2 57 4 53 6 -4 14 -51 17 -104 9 -126 17 -183 25 -183 6 0 2
72 -13 238 -3 39 -1 52 9 52 16 0 22 -28 30 -145 10 -142 11 -147 48 -143 25
2 32 7 30 23 -10 110 -14 245 -7 245 25 -1 32 -25 42 -133 6 -65 13 -121 16
-124 15 -16 17 15 8 119 -9 104 -9 128 2 117 2 -2 9 -55 14 -117 6 -63 13
-116 16 -120 15 -14 17 14 9 118 -5 61 -6 113 -3 115 20 12 30 -21 36 -118 6
-85 10 -107 22 -107 13 0 14 16 8 105 -5 67 -4 105 2 105 11 0 17 -33 27 -142
4 -38 11 -68 17 -68 7 0 8 34 3 103 -9 122 4 124 16 2 9 -91 15 -109 30 -100
5 4 6 45 2 97 -6 85 -5 90 13 86 16 -3 20 -16 28 -91 9 -86 9 -87 37 -87 52 0
54 4 51 86 -3 60 -1 75 10 72 8 -3 16 -32 22 -76 7 -60 12 -72 27 -72 17 0 19
8 19 65 0 49 3 65 14 65 10 0 16 -19 21 -60 5 -44 11 -60 22 -60 13 0 15 9 9
55 -5 44 -3 55 8 55 34 0 46 -13 46 -49 0 -20 4 -42 9 -50 15 -23 31 -2 31 40
0 36 2 40 23 37 18 -2 23 -10 25 -40 4 -48 22 -50 22 -3 0 19 2 35 4 35 20 0
36 -16 36 -36 0 -15 6 -24 15 -24 8 0 15 9 15 20 0 11 7 20 15 20 8 0 15 -9
15 -20 0 -13 7 -20 20 -20 11 0 20 7 20 15 0 8 5 15 10 15 6 0 10 -4 10 -10 0
-5 22 -10 48 -10 26 0 115 -13 197 -30 83 -16 151 -30 153 -30 1 0 2 -10 2
-22 0 -20 1 -20 18 -5 22 20 42 21 66 4 21 -16 12 -47 -15 -47 -10 0 -19 -4
-19 -10 0 -5 11 -10 25 -10 30 0 43 -24 25 -45 -17 -21 -70 -19 -86 3 -11 14
-13 15 -14 2 -1 -42 75 -55 110 -20 23 23 24 33 10 60 -6 11 -8 30 -5 43 l6
24 72 -14 c40 -7 80 -18 89 -23 10 -6 27 -10 38 -10 25 0 36 -25 20 -45 -15
-18 -77 -20 -83 -2 -2 6 -8 9 -12 5 -15 -14 18 -38 51 -38 39 0 74 29 74 60 0
16 5 19 23 15 12 -3 53 -11 92 -19 38 -8 71 -19 73 -25 2 -6 14 -8 26 -5 21 5
679 -118 720 -134 14 -6 -619 -64 -686 -62 -9 0 -18 9 -20 22 -2 12 -9 23 -15
26 -9 2 -11 -5 -7 -26 l6 -29 -79 -7 c-43 -3 -541 -44 -1108 -91 -566 -46
-1714 -141 -2550 -210 -836 -69 -1657 -136 -1825 -150 -168 -14 -1156 -95
-2197 -181 -1826 -150 -1893 -155 -1927 -139 -76 36 -61 -86 -206 1675 -72
877 -165 2006 -206 2508 -74 899 -75 914 -57 950 35 70 30 69 590 116 280 24
509 42 511 41 1 -1 -3 -34 -9 -73z m-136 -394 c18 -107 18 -225 -2 -311 -11
-49 -21 -90 -23 -92 -2 -1 -22 -6 -45 -10 l-41 -7 -8 81 c-7 90 -3 86 -89 74
l-48 -6 6 -78 6 -77 -70 -7 c-39 -4 -72 -6 -74 -4 -4 5 -35 359 -35 403 l0 33
67 6 c37 4 69 4 72 1 3 -3 8 -39 12 -80 3 -41 8 -77 11 -80 3 -3 33 -2 66 2
l60 6 -6 83 -5 83 29 5 c16 2 48 5 70 6 40 1 42 -1 47 -31z m-73 -665 c0 -12
-40 -227 -45 -241 -3 -8 -10 -10 -22 -3 -10 5 -31 13 -48 18 -34 10 -38 21
-13 37 13 8 23 8 38 -2 24 -15 30 -15 30 -2 0 18 -43 28 -72 18 -45 -16 -31
-68 17 -68 12 0 30 -7 41 -15 16 -13 17 -16 4 -25 -21 -14 -67 -12 -73 3 -2 6
-7 9 -11 6 -4 -4 1 -14 10 -24 12 -12 27 -15 51 -12 18 3 33 3 33 -1 0 -36
-36 -175 -47 -179 -9 -4 -13 -25 -13 -72 0 -69 -57 -382 -72 -392 -11 -7 -329
-32 -335 -25 -7 7 -83 930 -77 936 6 6 468 46 552 49 28 0 52 -2 52 -6z m-204
-1050 c-15 -84 -18 -156 -8 -191 6 -20 13 -49 17 -64 4 -22 10 -26 38 -26 17
0 136 -21 262 -46 127 -26 268 -55 315 -64 81 -16 85 -19 90 -47 6 -34 26 -31
21 4 -2 21 0 23 21 18 12 -4 31 -7 41 -7 10 0 17 -8 17 -19 0 -10 8 -29 18
-42 15 -18 29 -23 73 -23 53 -1 54 -2 57 -32 3 -26 -1 -33 -20 -38 -42 -11
-88 -7 -94 9 -8 19 -24 20 -24 1 0 -27 41 -46 84 -40 58 9 86 29 86 62 0 48
-22 67 -79 68 -28 0 -56 5 -62 11 -28 28 10 28 163 -1 147 -28 163 -33 166
-53 8 -56 105 -76 163 -34 25 18 70 19 94 1 6 -4 21 -8 35 -8 27 0 785 -146
835 -161 28 -8 29 -9 5 -10 -14 -1 -594 -48 -1290 -106 -695 -57 -1265 -103
-1267 -102 -6 6 -79 943 -74 949 6 7 180 24 270 27 l54 1 -7 -37z m3329 -918
c413 -80 884 -172 1048 -204 164 -32 299 -60 301 -62 7 -7 33 -344 27 -350 -3
-3 -490 -45 -1081 -94 -591 -48 -1137 -93 -1214 -99 -94 -8 -139 -8 -141 -1
-7 23 -76 927 -72 932 8 7 298 32 342 28 22 -1 378 -69 790 -150z m-1151 -330
c20 -242 36 -452 36 -467 0 -25 -4 -27 -52 -32 -105 -12 -2254 -186 -2290
-186 -24 0 -38 5 -38 13 0 6 -16 216 -36 464 -21 249 -35 455 -32 458 3 3 275
28 604 56 330 27 860 71 1179 97 319 27 583 46 587 43 3 -3 23 -204 42 -446z
m2652 38 c25 -3 48 -12 51 -19 3 -9 23 -14 58 -14 44 0 54 -3 58 -20 6 -23 27
-27 27 -5 0 8 3 15 8 15 4 1 211 -39 461 -87 333 -65 446 -90 425 -95 -40 -10
-1146 -99 -1153 -93 -4 5 -29 257 -30 314 -1 20 3 22 24 17 14 -4 46 -9 71
-13z m1544 -543 c10 -5 21 -24 25 -40 l7 -31 56 6 c136 14 397 33 401 29 7 -7
-30 -155 -45 -186 -17 -33 -21 -34 -204 -49 -80 -6 -147 -13 -148 -14 -2 -2 1
-20 8 -39 11 -34 14 -36 58 -36 26 0 100 5 166 11 106 9 138 8 125 -5 -2 -3
-77 -10 -167 -17 -157 -12 -163 -12 -181 7 -12 12 -33 77 -56 169 -20 82 -41
157 -46 167 -7 14 -22 18 -59 18 -28 0 -50 5 -50 10 0 13 86 13 110 0z"/>
<path d="M3266 10173 c-3 -10 -35 -171 -71 -358 -36 -187 -106 -545 -155 -795
-147 -754 -521 -2674 -523 -2690 -2 -17 5 -18 913 -195 300 -58 831 -162 1180
-230 349 -68 961 -187 1360 -265 399 -78 919 -179 1155 -225 237 -46 860 -168
1385 -270 525 -102 1137 -222 1360 -265 1451 -283 1920 -373 1925 -368 6 6 14
44 220 1103 80 413 214 1097 296 1520 235 1204 241 1237 232 1245 -7 5 -373
78 -1808 356 -93 18 -435 85 -760 148 -324 63 -858 167 -1185 231 -327 64
-791 154 -1030 201 -239 47 -502 98 -585 114 -164 32 -1252 244 -2460 479
-423 83 -912 178 -1085 211 -173 34 -325 64 -337 67 -15 3 -23 -1 -27 -14z
m397 -324 c50 -10 56 -14 52 -33 -13 -66 -25 -128 -25 -136 0 -8 84 -30 115
-30 9 0 17 24 26 69 6 38 15 75 19 81 9 15 140 -9 140 -25 0 -12 -66 -359 -76
-401 -5 -21 -7 -21 -72 -7 -36 7 -68 16 -71 18 -2 3 1 34 7 69 7 35 12 68 12
74 0 9 -81 32 -114 32 -9 0 -18 -26 -26 -75 -7 -41 -17 -75 -23 -75 -5 0 -39
5 -74 12 -57 10 -64 14 -60 32 3 12 22 108 42 214 42 215 31 200 128 181z
m787 -157 c127 -64 160 -234 68 -347 -44 -53 -98 -77 -177 -78 -194 -3 -310
168 -227 336 59 121 199 159 336 89z m560 -99 c28 -9 70 -33 93 -53 l42 -37
-34 -29 c-67 -57 -70 -58 -89 -36 -22 24 -75 52 -101 52 -12 0 -35 -13 -52
-28 -26 -23 -33 -38 -37 -80 -4 -47 -2 -54 27 -82 24 -25 38 -31 63 -28 30 3
34 7 45 52 7 26 14 51 17 54 5 4 115 -14 122 -21 8 -7 -36 -181 -47 -188 -46
-28 -193 -23 -257 10 -83 42 -124 108 -125 202 -1 169 155 269 333 212z m348
-74 l62 -12 1 -101 c1 -55 2 -108 3 -116 2 -8 4 -26 5 -40 1 -20 6 -14 25 30
12 30 35 81 49 113 15 32 27 62 27 67 0 5 4 12 10 15 11 7 130 -14 142 -24 4
-3 8 -64 9 -134 1 -127 8 -152 27 -99 14 37 75 173 88 195 9 16 15 17 78 3 37
-7 69 -16 71 -18 2 -2 -23 -51 -56 -108 -34 -58 -64 -112 -67 -120 -4 -8 -27
-50 -51 -93 l-43 -78 -42 6 c-85 13 -111 21 -112 35 -1 8 -2 63 -3 123 -1 64
-5 107 -11 107 -5 0 -10 -4 -10 -10 0 -8 -87 -200 -94 -207 -2 -2 -34 3 -71
11 -66 14 -84 26 -85 56 0 17 -37 336 -45 388 -4 28 -2 33 12 28 10 -3 46 -10
81 -17z m1025 -422 c26 -127 45 -232 44 -233 -1 -1 -37 5 -79 13 -75 15 -77
16 -80 47 -3 30 -4 31 -82 45 -74 14 -79 14 -92 -3 -7 -11 -15 -23 -16 -28 -3
-8 -134 14 -145 25 -4 5 79 139 97 157 3 3 40 57 82 121 l76 116 75 -14 75
-15 45 -231z m383 147 c136 -27 175 -43 207 -85 46 -62 25 -181 -41 -229 l-29
-22 27 -71 c15 -40 27 -73 26 -74 -1 -2 -37 4 -80 12 -43 8 -79 15 -81 15 -1
0 -8 27 -16 59 -11 49 -17 60 -36 64 -28 5 -29 4 -38 -55 -4 -27 -10 -48 -14
-48 -15 1 -132 28 -136 31 -3 3 77 429 80 429 1 0 60 -12 131 -26z m-2686
-169 c498 -97 1274 -248 1725 -336 451 -88 899 -175 995 -194 241 -47 1630
-317 2155 -420 237 -46 653 -127 925 -180 272 -53 496 -98 498 -99 1 -2 -33
-187 -77 -412 -44 -225 -83 -428 -87 -450 -3 -23 -10 -47 -14 -54 -8 -14 -50
-6 -1670 310 -278 55 -1027 201 -1665 325 -638 124 -1317 257 -1510 294 -192
38 -809 158 -1370 267 -561 109 -1022 199 -1024 201 -4 3 167 895 177 921 2 7
12 10 21 8 9 -3 423 -84 921 -181z m3275 55 c88 -17 165 -32 171 -34 8 -3 8
-20 1 -61 l-11 -57 -35 7 c-20 4 -47 9 -61 12 -26 5 -26 4 -55 -149 -16 -84
-30 -155 -31 -157 -5 -6 -144 21 -144 28 0 4 13 74 30 156 20 104 26 151 18
156 -6 4 -33 10 -61 13 l-49 7 6 51 c9 64 13 71 40 64 11 -3 93 -19 181 -36z
m575 -110 c59 -23 99 -50 100 -66 0 -6 -15 -31 -33 -56 l-32 -46 -25 20 c-37
30 -119 70 -130 63 -23 -14 -6 -37 49 -64 59 -30 120 -82 122 -104 1 -7 2 -26
4 -42 4 -52 -24 -97 -79 -124 -47 -23 -52 -24 -120 -12 -69 11 -156 52 -199
91 -19 19 -19 19 18 69 l37 51 40 -34 c71 -61 148 -86 148 -48 0 12 -19 28
-55 46 -71 36 -109 68 -125 106 -25 61 18 149 83 170 45 13 135 4 197 -20z
m718 -142 l173 -32 -7 -46 c-3 -25 -10 -49 -15 -54 -7 -8 -139 12 -200 30 -11
3 -19 -3 -22 -18 -4 -12 -5 -23 -4 -25 2 -1 37 -9 78 -18 131 -27 121 -21 114
-63 -13 -75 -4 -71 -112 -50 -53 10 -97 17 -99 16 -1 -2 -5 -15 -9 -29 l-6
-26 116 -23 c96 -19 115 -25 111 -39 -3 -9 -8 -33 -12 -54 -5 -29 -11 -38 -23
-35 -9 3 -94 20 -189 39 -140 27 -172 36 -169 49 2 8 21 104 42 213 21 108 43
197 49 197 6 0 89 -14 184 -32z m495 -146 l20 -53 42 41 43 42 77 -16 c42 -9
80 -16 83 -16 4 0 -33 -40 -82 -89 l-89 -90 51 -122 c28 -68 50 -125 47 -127
-6 -6 -149 19 -161 29 -6 5 -19 31 -29 57 -10 26 -20 49 -22 51 -2 3 -23 -15
-48 -39 l-44 -43 -73 13 c-40 7 -78 14 -84 17 -6 2 31 45 83 95 51 51 93 96
93 100 0 5 -9 28 -19 51 -35 78 -71 166 -71 175 0 5 37 2 81 -7 l82 -16 20
-53z m524 -52 c142 -27 165 -35 195 -68 92 -97 21 -277 -110 -277 -26 0 -63 3
-83 8 -36 7 -37 7 -43 -30 -14 -75 -9 -72 -81 -58 -36 6 -68 15 -72 18 -3 4 9
80 26 169 45 226 52 258 56 258 2 0 53 -9 112 -20z m558 -110 c148 -30 192
-58 209 -137 12 -52 -18 -136 -58 -170 l-35 -28 29 -73 29 -74 -37 7 c-135 25
-127 20 -146 86 -9 32 -20 59 -25 59 -5 0 -16 3 -24 6 -12 4 -17 -5 -22 -39
-10 -65 -12 -66 -82 -53 -34 6 -64 14 -68 18 -4 3 8 80 25 170 52 272 49 260
74 255 11 -3 71 -15 131 -27z m577 -111 c90 -18 167 -35 171 -39 8 -7 -6 -86
-17 -97 -3 -3 -52 3 -108 15 -57 11 -106 18 -110 15 -5 -2 -8 -13 -8 -23 0
-21 0 -21 119 -45 41 -9 76 -17 78 -19 2 -2 -2 -26 -8 -55 -9 -45 -13 -50 -32
-46 -50 12 -169 35 -178 35 -5 0 -9 -13 -9 -28 0 -31 -5 -29 163 -62 l59 -12
-7 -46 c-4 -26 -10 -50 -13 -54 -6 -6 -362 58 -370 67 -3 3 43 255 70 378 6
29 15 47 24 47 8 0 87 -14 176 -31z m623 -126 c83 -44 83 -43 45 -102 -18 -28
-35 -51 -36 -51 -2 0 -31 18 -65 40 -60 39 -92 49 -103 32 -8 -13 7 -28 57
-55 107 -60 127 -85 127 -157 0 -49 -27 -93 -73 -116 -36 -19 -151 -15 -202 7
-46 20 -135 80 -135 91 0 6 14 29 32 52 17 22 33 43 34 44 1 2 25 -14 52 -35
57 -45 105 -68 127 -59 31 12 14 36 -47 67 -80 40 -116 74 -124 117 -15 78 35
148 115 162 47 8 145 -11 196 -37z m-6955 -353 c426 -83 1060 -206 1408 -274
348 -68 634 -125 637 -127 2 -2 -7 -56 -20 -119 -12 -63 -53 -272 -90 -465
-38 -192 -69 -351 -70 -353 -2 -2 -94 15 -206 37 -112 22 -910 178 -1774 346
-863 168 -1575 307 -1581 309 -7 3 21 165 82 473 51 257 93 468 93 469 1 0
169 -32 374 -72 204 -40 721 -141 1147 -224z m7375 284 c47 -8 111 -38 142
-67 l22 -20 -32 -44 c-17 -25 -34 -46 -37 -48 -3 -2 -29 12 -57 31 -28 19 -66
37 -83 41 -54 10 -34 -27 33 -63 32 -17 73 -45 90 -63 27 -27 32 -39 32 -80 0
-62 -20 -98 -69 -123 -75 -38 -216 -9 -307 63 l-39 31 30 43 c17 24 35 47 40
50 6 4 26 -7 46 -24 48 -43 111 -73 135 -66 37 12 16 37 -66 78 -118 60 -145
159 -63 234 25 24 90 44 123 38 11 -2 38 -7 60 -11z m-1227 -675 c111 -21 152
-76 128 -170 -15 -56 -41 -84 -89 -94 -27 -7 -155 12 -176 25 -8 4 -3 44 14
130 14 67 25 125 25 127 0 2 8 2 18 -1 9 -3 45 -10 80 -17z m-2843 -253 c633
-123 1434 -279 1780 -347 347 -67 631 -123 632 -124 4 -2 -178 -929 -183 -934
-6 -6 -81 8 -979 184 -412 80 -1004 196 -1315 256 -1133 221 -1310 256 -1316
262 -6 5 156 867 172 920 4 14 12 17 32 13 15 -4 545 -107 1177 -230z m3179
188 c85 -18 86 -18 77 -52 -8 -30 -21 -32 -98 -18 -35 6 -43 5 -43 -7 0 -11
15 -17 50 -22 27 -4 52 -10 55 -15 9 -15 -7 -71 -20 -66 -7 2 -34 8 -60 12
-70 10 -49 -11 26 -25 l61 -12 -6 -31 c-3 -18 -8 -33 -10 -36 -3 -2 -50 6
-107 17 -56 12 -103 21 -105 21 -8 0 -3 39 18 147 l22 113 35 -6 c20 -3 67
-13 105 -20z m302 -66 c43 -21 55 -78 28 -134 -18 -38 -72 -60 -119 -48 -22 5
-26 2 -31 -25 -4 -17 -9 -31 -13 -31 -21 0 -81 22 -81 30 0 12 40 222 45 236
4 13 132 -8 171 -28z m255 -47 c8 -9 52 -261 46 -267 -2 -3 -23 -2 -46 2 -32
5 -43 12 -47 30 -8 31 -79 45 -98 19 -10 -14 -21 -16 -54 -10 -23 4 -42 11
-42 15 0 9 114 184 139 213 12 14 23 17 56 12 22 -4 43 -10 46 -14z m244 -45
c89 -19 109 -40 102 -110 -3 -36 -11 -55 -27 -68 -22 -18 -22 -20 -7 -58 8
-22 12 -42 9 -44 -4 -2 -27 2 -51 8 -39 9 -46 16 -53 44 -10 37 -29 38 -38 3
-3 -12 -8 -22 -12 -22 -5 1 -18 1 -30 1 -50 0 -52 8 -27 143 21 117 24 126 43
122 12 -3 52 -11 91 -19z m379 -84 c-1 -7 -2 -23 -2 -37 -2 -23 -5 -25 -40
-19 l-38 6 -13 -79 c-7 -44 -16 -85 -20 -92 -8 -13 -91 -5 -91 9 0 4 7 42 16
85 18 87 15 105 -21 105 -26 0 -31 13 -19 56 l5 20 112 -21 c71 -13 112 -25
111 -33z m-8835 -103 c1377 -268 1795 -350 1797 -352 3 -3 -177 -921 -181
-926 -2 -2 -181 31 -397 73 -680 133 -1191 233 -1573 307 -203 39 -371 72
-372 73 -1 1 7 42 17 91 10 50 50 258 90 463 57 293 76 372 88 372 8 0 247
-45 531 -101z m7307 35 c71 -14 130 -27 132 -28 1 -2 0 -22 -4 -45 -7 -47 -8
-47 -101 -27 -60 13 -63 13 -69 -7 -8 -25 6 -33 67 -41 77 -10 78 -11 67 -59
-5 -23 -10 -43 -12 -44 -2 -2 -34 3 -72 11 -38 8 -70 13 -71 12 -2 -1 -7 -24
-12 -50 -5 -26 -10 -49 -12 -51 -2 -2 -28 2 -57 7 -47 10 -53 13 -49 32 3 12
18 87 33 169 15 81 28 147 29 147 1 0 60 -12 131 -26z m328 -64 c138 -28 166
-53 166 -144 0 -34 -7 -50 -34 -82 l-33 -39 18 -54 19 -54 -50 7 c-72 10 -79
14 -90 58 -17 61 -59 62 -60 1 0 -25 -10 -27 -72 -17 -46 8 -47 9 -13 175 33
165 34 169 44 169 5 0 52 -9 105 -20z m521 -118 c83 -58 97 -171 30 -249 -92
-108 -288 -64 -324 72 -21 82 23 172 99 204 14 6 54 9 90 6 50 -4 74 -11 105
-33z m285 -42 c11 -6 20 -35 29 -89 7 -45 16 -81 20 -81 3 0 26 32 51 71 l45
70 48 -6 c64 -8 78 -14 73 -34 -2 -9 -17 -83 -32 -165 l-29 -148 -43 6 c-24 3
-47 8 -52 11 -4 2 -1 35 6 71 8 37 13 68 12 70 -2 1 -19 -22 -37 -51 -36 -56
-39 -57 -98 -40 -6 2 -14 23 -18 47 -13 83 -18 86 -31 14 -7 -38 -15 -70 -17
-73 -6 -5 -81 7 -94 16 -7 4 1 64 21 169 l31 164 49 -7 c27 -3 57 -10 66 -15z
m-6220 -244 c184 -36 684 -133 1110 -216 426 -83 805 -157 843 -164 37 -7 70
-15 73 -18 5 -6 -170 -915 -178 -923 -3 -3 -214 36 -469 85 -255 50 -790 154
-1189 232 -399 77 -729 144 -733 148 -5 4 1 54 12 111 11 57 50 257 86 444 78
400 72 377 93 371 9 -3 168 -34 352 -70z m4968 13 c61 -15 82 -34 82 -74 0
-45 -39 -80 -79 -72 -27 6 -32 3 -37 -19 -6 -22 -10 -24 -38 -18 -17 3 -32 8
-34 9 -2 2 5 44 14 94 20 100 17 98 92 80z m176 -54 c-1 -11 -5 -44 -9 -72 -7
-49 -6 -53 13 -53 32 0 52 -11 52 -27 0 -9 23 19 51 62 49 74 52 77 82 71 17
-3 33 -8 35 -11 5 -4 19 -72 28 -135 3 -19 7 -41 9 -47 7 -21 -40 -15 -69 8
-22 17 -35 20 -67 15 -24 -4 -77 1 -131 11 l-90 17 5 41 c4 22 11 64 17 93 12
52 13 53 43 50 25 -2 32 -8 31 -23z m384 -56 c55 -10 62 -14 62 -35 0 -20 -5
-24 -30 -24 -20 0 -30 -5 -30 -15 0 -7 -5 -37 -11 -65 -9 -41 -14 -50 -32 -50
-43 0 -50 13 -38 69 15 71 14 81 -9 81 -16 0 -20 7 -20 31 0 27 3 30 23 26 12
-3 50 -11 85 -18z m190 -36 c30 -4 42 -10 42 -22 0 -32 -14 -40 -53 -32 -28 7
-37 6 -37 -5 0 -7 16 -16 36 -20 31 -6 35 -10 32 -33 -2 -14 -7 -25 -13 -25
-5 1 -25 4 -42 7 -30 6 -33 4 -33 -18 0 -30 -8 -35 -44 -28 -27 6 -28 8 -23
47 3 23 11 65 18 95 11 53 11 53 43 47 17 -4 50 -9 74 -13z m215 -61 c44 -41
33 -127 -20 -151 -104 -48 -205 57 -138 145 38 50 107 52 158 6z m174 -17 c53
-12 70 -71 32 -118 -16 -21 -18 -31 -10 -46 15 -26 14 -41 -1 -37 -7 3 -25 7
-40 10 -21 5 -28 12 -28 31 0 30 -16 33 -25 5 -7 -21 -39 -27 -63 -12 -10 7
-9 24 3 88 9 43 18 84 20 91 4 11 18 9 112 -12z m155 -39 c4 -6 8 -20 8 -31 1
-44 16 -48 39 -11 23 37 30 40 70 29 21 -5 23 -10 18 -47 -14 -99 -29 -146
-45 -146 -33 0 -41 14 -33 53 11 45 7 47 -14 7 -20 -39 -51 -40 -67 -2 l-12
27 -4 -27 c-3 -29 -24 -36 -51 -19 -15 9 -13 36 10 142 11 50 11 50 42 43 18
-3 35 -12 39 -18z m-3866 -217 c170 -33 428 -83 574 -111 146 -28 268 -53 272
-57 5 -5 -168 -921 -175 -927 -3 -3 -1157 223 -1161 227 -3 2 4 45 14 94 9 50
50 258 90 463 40 204 73 372 74 372 1 0 141 -27 312 -61z m2879 -110 c78 -14
122 -38 172 -92 52 -57 70 -91 92 -180 56 -221 -20 -517 -171 -670 -79 -79
-149 -111 -248 -111 -97 0 -152 16 -200 60 -73 66 -89 175 -37 251 35 51 76
69 133 57 58 -11 88 -47 87 -100 -1 -48 -35 -81 -98 -97 -76 -19 -69 -68 14
-103 96 -40 176 15 221 155 16 47 50 206 50 231 0 4 -23 1 -51 -6 -83 -22
-195 7 -264 67 -144 127 -91 427 90 514 76 35 121 41 210 24z m758 -75 c49
-25 66 -44 73 -80 8 -43 -24 -90 -67 -99 l-31 -7 31 -32 c39 -41 49 -91 27
-134 -24 -47 -56 -63 -123 -64 -75 -1 -119 21 -139 69 -28 67 20 122 82 94 32
-14 30 -60 -4 -77 -35 -17 -37 -22 -17 -44 48 -53 115 11 115 109 0 44 -21 68
-65 73 -18 2 -31 10 -33 19 -2 14 5 15 45 12 60 -6 71 5 80 76 7 57 -6 81 -42
81 -38 0 -50 -24 -29 -58 20 -35 14 -57 -16 -65 -27 -7 -70 32 -70 63 0 12 13
35 29 51 24 24 38 29 76 29 25 0 60 -7 78 -16z m-2133 -107 c453 -89 575 -116
573 -128 -3 -18 -150 -776 -166 -854 -12 -56 -14 -60 -37 -56 -55 7 -1143 221
-1147 225 -4 3 161 866 173 909 3 9 11 17 17 17 7 -1 271 -52 587 -113z m2038
-653 c2 -1 -8 -59 -22 -129 -14 -70 -23 -131 -20 -136 3 -5 16 -9 30 -9 15 0
24 -6 24 -16 0 -13 -7 -15 -35 -11 -24 4 -35 2 -35 -6 0 -7 -3 -28 -6 -48 -6
-33 -4 -37 20 -43 14 -3 26 -11 26 -16 0 -12 4 -13 -77 4 -37 8 -85 17 -105
20 -21 4 -38 12 -38 18 0 7 13 9 34 5 31 -5 34 -3 40 25 12 62 10 65 -54 77
-33 7 -60 17 -60 22 0 6 47 66 105 134 102 120 107 124 138 118 18 -3 33 -7
35 -9z"/>
<path d="M4287 9589 c-44 -26 -60 -109 -30 -160 29 -48 96 -51 134 -6 40 49
30 153 -16 171 -25 9 -68 7 -88 -5z"/>
<path d="M3205 8718 c-10 -30 -36 -191 -31 -195 11 -11 24 9 30 47 7 45 3 44
80 28 l58 -11 -6 -50 c-11 -79 16 -54 36 34 19 87 22 129 8 129 -5 0 -12 -12
-16 -27 -14 -64 -11 -61 -57 -52 -96 21 -89 15 -81 64 4 31 3 45 -5 45 -6 0
-14 -6 -16 -12z"/>
<path d="M3686 8623 c-15 -55 -36 -184 -31 -193 11 -18 22 -2 29 41 5 31 10
40 22 35 9 -3 19 -6 24 -6 5 0 16 -22 25 -50 10 -29 23 -50 31 -50 17 0 17 2
-1 46 -15 35 -14 37 15 64 52 48 35 104 -35 120 -58 14 -73 12 -79 -7z"/>
<path d="M3906 8583 c-12 -41 -37 -195 -32 -200 9 -10 26 8 27 30 0 12 7 45
13 72 l13 50 23 -52 c12 -29 26 -53 30 -53 4 0 26 18 50 41 l43 41 -7 -39
c-17 -100 -18 -123 -8 -123 7 0 14 10 17 23 11 49 35 169 35 178 0 21 -27 6
-72 -38 -26 -26 -49 -45 -52 -42 -2 2 -15 31 -29 64 -26 63 -42 78 -51 48z"/>
<path d="M4297 8484 c-18 -35 -31 -125 -23 -152 10 -30 67 -48 134 -44 28 2
49 47 58 124 8 70 -12 90 -96 96 -56 4 -59 3 -73 -24z m127 -11 c16 -4 18 -12
11 -66 -8 -71 -19 -97 -43 -97 -32 0 -90 20 -95 33 -7 17 13 118 26 135 10 13
48 11 101 -5z"/>
<path d="M4555 8448 c-21 -93 -34 -183 -25 -192 5 -5 11 0 14 15 3 13 12 51
19 84 l13 60 48 -93 c27 -53 52 -92 59 -89 13 4 53 194 43 205 -12 11 -22 -16
-36 -91 l-13 -71 -48 97 c-27 53 -54 97 -59 97 -5 0 -12 -10 -15 -22z"/>
<path d="M5588 8243 c-8 -10 -21 -46 -27 -80 -17 -88 -2 -112 82 -127 31 -6
41 -3 63 19 35 35 31 79 -8 83 -31 4 -37 -12 -12 -26 20 -11 15 -46 -8 -50 -9
-2 -35 2 -58 8 l-42 11 7 62 c9 87 18 100 63 92 62 -10 72 -16 72 -36 0 -10 4
-19 9 -19 15 0 23 19 16 39 -12 39 -129 56 -157 24z"/>
<path d="M5816 8133 c-10 -49 -19 -96 -22 -105 -4 -12 0 -18 10 -18 11 0 18
13 22 40 5 29 11 40 24 40 22 0 34 -15 49 -62 12 -36 27 -55 37 -46 2 3 -3 24
-11 48 -8 24 -14 44 -13 44 43 15 65 57 54 99 -6 27 -51 47 -107 47 -25 0 -27
-4 -43 -87z"/>
<path d="M6051 8075 c-33 -52 -61 -97 -61 -100 0 -13 24 -3 39 16 16 20 23 21
67 13 43 -8 49 -12 52 -37 2 -16 9 -27 18 -27 16 0 16 2 -14 144 -9 44 -22 81
-28 83 -6 2 -39 -39 -73 -92z"/>
<path d="M6280 8137 c0 -1 -9 -49 -20 -106 -11 -58 -18 -106 -16 -109 13 -12
26 16 37 78 7 39 15 70 19 70 3 0 26 -40 50 -90 24 -49 49 -90 56 -90 9 0 33
96 47 195 1 6 -3 12 -8 15 -6 3 -16 -20 -23 -50 -7 -30 -15 -66 -18 -80 -5
-21 -13 -11 -55 73 -27 53 -54 97 -59 97 -6 0 -10 -1 -10 -3z"/>
<path d="M6554 8073 c-25 -18 -53 -120 -45 -163 5 -29 34 -49 76 -56 60 -8 82
1 95 41 13 41 9 51 -25 57 -32 7 -42 -8 -15 -22 41 -22 8 -63 -43 -53 -61 11
-69 20 -62 66 12 80 25 107 50 107 48 0 83 -12 88 -31 7 -25 27 -24 27 1 0 11
-10 26 -23 35 -27 18 -107 29 -123 18z"/>
<path d="M6995 7978 c-14 -61 -35 -171 -35 -184 0 -29 20 -12 30 27 9 33 15
40 33 37 15 -2 26 -16 37 -45 9 -24 22 -48 29 -55 11 -11 12 -8 8 17 -3 17 -8
40 -12 52 -5 16 -2 23 13 28 28 8 47 67 32 95 -12 23 -35 33 -92 44 -33 6 -38
4 -43 -16z"/>
<path d="M3051 8020 c-17 -80 -16 -87 25 -94 90 -17 132 95 48 130 -54 23 -61
19 -73 -36z"/>
<path d="M3315 7592 c-18 -102 -17 -148 3 -102 6 14 16 52 23 84 l11 59 32
-60 c18 -34 38 -75 46 -92 7 -17 19 -31 26 -31 8 0 14 2 14 4 0 2 9 48 20 101
24 115 23 105 6 105 -9 0 -17 -25 -26 -75 -7 -41 -16 -75 -19 -75 -4 0 -27 41
-51 90 -24 50 -49 90 -55 90 -7 0 -19 -43 -30 -98z"/>
<path d="M3593 7618 c-15 -18 -32 -92 -33 -140 0 -32 5 -40 31 -53 46 -24 108
-24 125 0 23 31 29 66 13 76 -22 14 -49 10 -49 -6 0 -8 7 -15 15 -15 17 0 19
-18 6 -39 -11 -17 -94 -7 -111 14 -14 17 6 129 26 146 21 17 97 -2 109 -29 13
-29 25 -28 25 2 0 34 -21 47 -87 53 -43 4 -62 2 -70 -9z"/>
<path d="M3935 7547 c-9 -14 -15 -38 -13 -54 3 -24 10 -30 61 -47 60 -19 72
-39 42 -69 -11 -12 -23 -13 -52 -6 -21 5 -41 9 -44 9 -4 0 -9 9 -12 20 -6 25
-27 26 -27 2 0 -31 35 -53 94 -59 l56 -6 15 38 c15 33 15 39 1 61 -10 13 -34
28 -58 35 -48 12 -58 22 -51 50 4 13 14 19 32 19 41 0 71 -11 71 -26 0 -8 7
-14 15 -14 23 0 18 28 -10 46 -13 9 -42 18 -64 21 -34 5 -41 2 -56 -20z"/>
<path d="M4516 7373 c-10 -48 -20 -98 -23 -110 -4 -16 -1 -23 10 -23 10 0 18
14 22 40 6 33 11 40 30 40 19 0 26 -10 41 -50 10 -27 24 -50 31 -50 16 0 16 3
-2 48 -9 20 -12 38 -7 40 31 10 45 32 46 73 1 49 -14 61 -90 74 l-41 6 -17
-88z"/>
<path d="M4757 7398 c-25 -18 -52 -144 -38 -175 16 -34 110 -55 151 -33 19 10
40 85 40 145 0 42 -24 61 -90 70 -31 4 -51 2 -63 -7z m119 -40 c12 -12 12 -24
1 -78 l-13 -65 -42 -3 c-22 -2 -51 2 -63 8 -19 11 -21 17 -15 61 4 28 11 61
17 76 9 24 13 25 55 20 25 -2 52 -11 60 -19z"/>
<path d="M5006 7339 c-35 -50 -11 -92 60 -107 35 -7 39 -11 39 -37 0 -27 -3
-30 -37 -33 -42 -4 -78 12 -78 33 0 8 -7 15 -15 15 -21 0 -19 -26 4 -49 24
-24 101 -37 130 -22 26 14 37 55 23 86 -7 16 -25 27 -61 36 -46 12 -51 15 -51
41 0 26 3 28 40 28 27 0 47 -7 60 -20 25 -25 30 -25 30 0 0 24 -26 38 -83 46
-39 6 -46 3 -61 -17z"/>
<path d="M5246 7288 c-34 -47 -7 -91 63 -103 37 -6 41 -10 41 -35 0 -37 -10
-43 -66 -34 -33 5 -48 12 -51 25 -6 21 -33 26 -33 7 1 -29 31 -51 88 -61 50
-10 80 6 88 48 8 45 -5 61 -65 79 -41 12 -46 16 -46 42 0 28 2 29 40 26 25 -2
46 -10 57 -22 21 -26 30 -25 26 2 -7 48 -114 67 -142 26z"/>
<path d="M6635 7028 c-14 -61 -35 -171 -35 -184 0 -25 19 -15 26 14 15 67 12
64 62 57 84 -11 83 -11 76 -66 -4 -32 -3 -49 4 -49 13 0 17 12 36 118 9 46 13
88 10 93 -10 17 -21 0 -28 -41 -7 -45 -10 -45 -87 -29 l-51 11 6 49 c7 50 -8
71 -19 27z"/>
<path d="M6913 6975 c-16 -11 -24 -33 -33 -85 -7 -39 -9 -77 -6 -86 8 -20 67
-44 109 -44 46 0 65 25 79 98 15 82 4 105 -56 121 -58 14 -67 14 -93 -4z m103
-25 c26 -10 27 -12 21 -69 -8 -73 -14 -88 -38 -94 -23 -6 -91 11 -100 25 -3 5
-2 31 2 56 17 93 17 92 54 92 18 0 46 -5 61 -10z"/>
<path d="M7166 6927 c-24 -17 -51 -144 -37 -174 19 -42 130 -57 155 -21 20 28
21 78 2 78 -8 0 -21 3 -30 6 -10 4 -16 1 -16 -9 0 -8 9 -17 21 -20 17 -5 19
-9 9 -26 -12 -24 -67 -29 -102 -10 -18 10 -20 17 -14 60 11 80 21 99 55 99 42
0 81 -17 81 -35 0 -8 7 -15 15 -15 8 0 15 5 15 11 0 51 -107 90 -154 56z"/>
<path d="M7400 6871 c-27 -52 -1 -93 68 -107 39 -8 46 -17 37 -51 -6 -24 -9
-25 -53 -19 -31 4 -52 13 -61 26 -17 25 -31 26 -31 1 0 -24 35 -47 86 -55 53
-9 87 16 87 64 0 39 -21 58 -75 66 -41 7 -53 25 -37 55 8 16 17 19 47 13 20
-3 45 -16 54 -28 21 -26 35 -14 20 18 -17 38 -123 51 -142 17z"/>
<path d="M7636 6828 c-35 -162 -39 -207 -17 -194 4 3 13 37 20 76 7 38 16 70
20 70 4 0 17 -23 29 -52 l22 -52 46 44 47 45 -7 -40 c-17 -108 -18 -125 -8
-125 13 0 16 10 38 123 9 48 14 90 10 94 -3 4 -31 -17 -61 -47 l-54 -54 -26
57 c-14 32 -25 62 -25 67 0 20 -30 9 -34 -12z"/>
<path d="M8141 6648 c-33 -51 -57 -96 -54 -102 4 -5 16 2 27 15 19 22 26 24
64 17 53 -9 62 -14 62 -38 0 -18 17 -36 25 -28 10 10 -40 228 -52 228 -7 0
-39 -41 -72 -92z"/>
<path d="M8354 6613 c-10 -54 -19 -102 -19 -108 0 -13 97 -34 130 -28 33 7 56
50 62 122 6 66 -6 82 -79 100 -77 18 -74 21 -94 -86z m138 39 c16 -15 16 -23
4 -73 -18 -79 -21 -82 -75 -74 -25 4 -49 10 -53 13 -3 4 1 42 9 85 l16 78 41
-6 c23 -4 49 -14 58 -23z"/>
<path d="M2861 7040 c-19 -88 -12 -99 56 -100 24 0 63 43 63 71 0 27 -41 67
-77 74 -31 6 -31 6 -42 -45z"/>
<path d="M3092 6688 c-39 -50 -20 -92 48 -108 49 -12 51 -14 48 -44 -4 -36
-19 -42 -76 -27 -28 8 -42 18 -46 34 -5 18 -8 19 -15 8 -23 -35 29 -72 102
-73 43 0 66 21 67 62 0 38 -13 51 -66 65 -39 9 -50 17 -52 35 -5 33 10 42 58
34 29 -5 44 -13 47 -25 7 -27 25 -24 21 3 -2 12 -14 28 -28 35 -32 16 -95 17
-108 1z"/>
<path d="M3535 6608 c-11 -32 -36 -190 -31 -196 9 -9 18 5 25 40 7 33 7 33 66
33 59 0 60 0 71 35 6 19 8 44 4 55 -12 34 -125 61 -135 33z"/>
<path d="M4070 6495 c-7 -8 -17 -49 -23 -91 -11 -74 -11 -77 12 -95 30 -25
102 -26 123 -1 23 26 42 136 28 162 -21 38 -115 55 -140 25z m90 -16 l33 -12
-7 -59 c-9 -85 -20 -102 -64 -94 -58 9 -66 24 -52 92 18 87 27 94 90 73z"/>
<path d="M4455 6424 c-10 -10 -15 -29 -13 -50 1 -20 -4 -40 -15 -52 -22 -24
-22 -65 1 -85 21 -19 83 -31 110 -23 27 9 45 61 31 87 -7 15 -6 23 6 35 16 17
20 51 7 72 -9 13 -64 32 -94 32 -9 0 -24 -7 -33 -16z"/>
<path d="M5610 6196 c-18 -23 -39 -137 -29 -163 11 -31 43 -45 92 -41 37 3 44
7 59 38 28 59 33 122 11 149 -25 31 -112 42 -133 17z m107 -27 c25 -22 4 -144
-28 -154 -26 -9 -89 13 -89 30 0 29 23 121 33 133 12 15 61 9 84 -9z"/>
<path d="M5863 6158 c-17 -8 -26 -27 -39 -85 -15 -67 -15 -75 0 -98 10 -14 30
-27 51 -31 77 -14 103 14 112 122 5 57 4 63 -18 77 -33 20 -80 27 -106 15z
m83 -30 c24 -11 26 -15 20 -60 -13 -97 -30 -111 -105 -91 -22 6 -23 9 -17 59
12 103 34 123 102 92z"/>
<path d="M6139 6104 c-36 -43 -117 -179 -112 -188 4 -5 17 3 29 17 22 26 25
27 74 16 43 -9 50 -14 50 -34 0 -24 16 -42 27 -31 7 7 -37 225 -47 231 -4 3
-14 -2 -21 -11z"/>
<path d="M6316 6068 c-9 -25 -36 -170 -36 -189 0 -41 19 -16 30 39 6 31 15 66
19 77 8 18 11 16 26 -20 30 -70 33 -71 82 -23 51 50 51 48 18 -99 -4 -15 -1
-23 8 -23 17 0 60 200 46 214 -5 6 -29 -12 -59 -44 -28 -29 -52 -51 -55 -48
-3 2 -16 31 -29 64 -24 58 -42 77 -50 52z"/>
<path d="M7687 5737 c-37 -34 -67 -67 -67 -74 0 -6 24 -15 53 -20 49 -8 52
-10 49 -36 -4 -34 15 -35 28 -1 6 14 14 23 19 19 5 -3 12 -1 16 4 3 5 -2 14
-12 19 -15 9 -16 16 -5 62 25 110 14 114 -81 27z"/>
<path d="M10750 6106 c-41 -13 -58 -43 -91 -155 -15 -53 -22 -103 -23 -183 -1
-104 0 -111 23 -129 14 -12 39 -19 63 -19 50 0 91 38 108 101 7 24 18 65 26
91 16 54 23 199 11 240 -5 18 -21 35 -45 47 -31 16 -42 17 -72 7z"/>
<path d="M8891 5557 c-14 -18 -42 -152 -35 -171 12 -32 109 -51 138 -27 18 15
30 71 22 99 -7 21 -53 42 -92 42 -17 0 -24 6 -24 19 0 27 12 32 61 25 29 -5
43 -13 46 -25 7 -27 25 -24 21 3 -2 12 -14 28 -28 35 -33 17 -95 16 -109 0z"/>
<path d="M9103 5428 c-22 -118 -23 -115 64 -124 74 -8 87 5 89 86 0 31 4 62 8
68 20 32 -45 72 -116 72 -25 0 -27 -3 -45 -102z"/>
<path d="M12895 8298 c-2 -7 -38 -191 -80 -408 -43 -217 -103 -530 -135 -695
-32 -165 -118 -604 -190 -975 -72 -371 -153 -787 -180 -925 -140 -713 -161
-827 -154 -834 5 -5 135 -32 289 -60 355 -67 900 -172 1300 -252 171 -34 319
-62 330 -63 14 -1 21 6 23 24 4 30 262 1360 334 1720 28 140 53 266 55 280 22
121 276 1428 318 1637 19 95 35 176 35 181 0 5 -17 12 -37 15 -21 3 -225 42
-453 87 -1039 203 -1433 280 -1443 280 -4 0 -9 -6 -12 -12z m872 -204 c281
-54 293 -57 288 -78 -4 -18 -188 -960 -301 -1540 -19 -99 -36 -181 -38 -183
-4 -4 -617 115 -623 121 -4 4 0 26 116 621 38 198 102 524 141 725 39 201 73
373 76 383 4 13 12 17 27 13 12 -2 154 -30 314 -62z m718 -139 c159 -31 292
-59 294 -61 3 -3 -30 -183 -73 -402 -42 -218 -118 -608 -168 -867 -50 -258
-92 -472 -94 -474 -3 -3 -580 107 -660 126 l-21 4 28 137 c16 75 57 288 93
472 155 798 217 1116 221 1126 2 8 17 9 47 3 24 -4 173 -33 333 -64z m-1405
12 c0 -4 -7 -22 -15 -40 l-16 -32 20 25 c41 51 51 60 71 60 30 0 60 -36 60
-70 0 -32 -34 -110 -48 -110 -5 0 -17 6 -28 14 -19 14 -19 15 -1 46 11 17 17
34 14 36 -2 3 -14 -11 -25 -31 -25 -41 -60 -47 -93 -14 -17 17 -20 29 -16 61
3 21 12 50 21 63 14 22 19 23 36 13 11 -7 20 -16 20 -21z m-43 -189 c9 -8 9
-15 -4 -34 -9 -14 -13 -27 -10 -30 3 -3 12 8 21 24 23 44 65 55 98 25 32 -29
18 -116 -25 -151 -11 -9 -18 -8 -32 8 -17 19 -17 21 -1 39 10 11 16 26 14 33
-3 8 -12 0 -22 -19 -24 -47 -62 -54 -94 -18 -27 32 -26 77 3 121 15 24 23 24
52 2z m-43 -203 c-1 -5 -4 -26 -8 -45 -4 -25 -3 -31 4 -20 5 8 10 25 10 38 0
22 14 27 44 16 8 -3 13 -11 11 -17 -12 -39 -14 -67 -6 -67 6 0 14 19 18 42 8
42 34 62 53 41 7 -7 -16 -151 -25 -161 -3 -3 -177 29 -183 34 -4 2 14 101 25
137 3 13 13 17 31 15 15 -2 26 -7 26 -13z m14 -211 c18 -12 29 -14 54 -5 29
10 30 10 24 -12 -3 -12 -6 -30 -6 -39 0 -10 -10 -20 -25 -24 -30 -7 -32 -20
-5 -27 17 -4 20 -10 14 -34 -4 -15 -8 -31 -10 -34 -4 -7 -171 25 -180 34 -9 9
15 109 32 134 17 28 68 31 102 7z m-40 -204 c16 -15 22 -33 22 -60 0 -34 3
-40 21 -40 19 0 21 -4 15 -32 -3 -17 -8 -34 -11 -36 -7 -8 -185 30 -185 39 0
33 26 115 41 130 25 25 70 24 97 -1z m-51 -237 c10 2 35 12 57 22 l38 16 -6
-38 c-4 -21 -17 -46 -29 -56 -15 -13 -18 -20 -9 -24 13 -5 16 -61 4 -80 -6 -9
-19 -2 -46 26 l-38 39 -45 -19 c-52 -22 -64 -24 -59 -6 3 6 7 24 10 38 4 16
15 29 28 32 21 6 21 7 4 26 -14 16 -17 29 -11 57 l6 37 39 -38 c26 -25 45 -36
57 -32z m-91 -227 l-5 -51 11 43 c9 35 15 42 36 42 24 0 24 -2 19 -45 -4 -25
-3 -45 2 -45 5 0 12 20 15 45 6 39 10 45 32 45 28 0 29 -6 12 -97 -6 -36 -17
-67 -24 -70 -13 -5 -164 23 -172 32 -5 5 17 144 24 156 2 4 15 4 30 1 24 -4
25 -7 20 -56z m-60 -308 c-17 -32 -17 -32 1 -12 10 12 23 29 28 37 30 47 105
16 105 -44 0 -28 -34 -109 -46 -109 -14 0 -44 22 -44 32 0 6 7 19 16 29 9 10
14 23 12 30 -2 7 -14 -4 -26 -24 -17 -30 -27 -37 -51 -37 -60 0 -79 81 -35
147 l16 25 21 -21 c21 -20 21 -22 3 -53z m667 -93 c147 -28 269 -54 271 -56 2
-2 -25 -150 -60 -329 -35 -179 -104 -534 -154 -790 -50 -256 -107 -548 -126
-650 -19 -101 -36 -186 -38 -187 -1 -1 -143 25 -314 58 -202 40 -312 66 -312
73 0 7 29 160 64 342 36 181 97 493 136 694 107 553 171 873 177 893 6 22 -16
25 356 -48z m-701 -67 c-3 -29 -3 -29 81 -46 21 -4 38 -10 37 -14 0 -5 0 -20
0 -34 0 -26 -1 -27 -45 -21 -25 4 -56 9 -69 13 -20 5 -25 2 -28 -18 -2 -18 -9
-22 -27 -20 -14 1 -27 4 -29 7 -4 4 13 109 24 148 4 13 14 17 32 15 23 -3 27
-7 24 -30z m1239 -38 c391 -75 450 -87 456 -94 7 -6 -366 -1936 -376 -1948 -7
-8 -658 116 -669 127 -6 5 29 193 178 955 45 228 106 541 135 695 53 272 61
305 68 305 2 0 95 -18 208 -40z m-1219 -157 c16 -14 24 -15 50 -5 l30 11 -7
-37 c-7 -37 -19 -52 -42 -52 -7 0 -13 -4 -13 -10 0 -5 9 -10 21 -10 18 0 20
-4 14 -32 -4 -18 -9 -35 -11 -37 -8 -8 -184 32 -184 43 1 28 22 103 36 124 18
27 78 30 106 5z m34 -235 c-3 -18 -14 -36 -22 -41 -13 -7 -15 -20 -10 -61 3
-28 2 -57 -3 -65 -9 -14 -15 -10 -164 90 -5 4 -7 22 -3 41 6 34 7 35 84 50
122 24 126 24 118 -14z m-156 -182 c94 -49 107 -61 102 -95 -4 -30 -21 -40
-72 -41 -22 -1 -20 -3 13 -17 35 -14 38 -18 35 -52 l-3 -36 -90 -13 c-49 -7
-95 -10 -101 -8 -20 8 -3 57 23 67 14 5 28 7 33 4 4 -3 16 -2 25 1 12 5 6 11
-24 25 -31 14 -41 24 -41 42 0 33 18 47 65 47 l40 1 -40 21 c-22 11 -42 22
-43 24 -7 5 10 65 16 62 4 -2 32 -16 62 -32z m-78 -356 c-27 -43 0 -81 43 -62
32 15 32 38 1 46 -19 5 -22 11 -18 31 3 20 10 25 36 25 44 0 54 -10 60 -57 8
-73 -52 -136 -116 -120 -71 18 -99 100 -58 166 l21 34 22 -22 c18 -18 20 -24
9 -41z m49 -189 c47 -48 37 -130 -21 -164 -41 -25 -75 -21 -112 11 -27 25 -31
36 -31 77 0 41 4 52 31 77 44 39 93 38 133 -1z m-83 -217 c64 -13 82 -20 78
-31 -4 -8 -6 -24 -6 -35 0 -18 -4 -19 -35 -14 -32 6 -35 5 -35 -17 0 -18 7
-27 25 -31 17 -4 25 -13 25 -29 0 -45 -10 -48 -103 -30 l-88 17 3 36 c3 34 4
35 41 32 32 -3 37 -1 37 17 0 16 -8 23 -30 28 -30 6 -37 23 -24 57 8 20 10 20
112 0z"/>
<path d="M8606 4917 c-19 -19 -32 -70 -84 -338 -64 -326 -68 -358 -52 -388 14
-28 45 -36 330 -91 146 -28 344 -67 440 -86 96 -19 185 -34 196 -34 12 0 32
11 45 24 21 21 32 67 88 353 41 211 62 339 57 356 -4 18 -18 33 -39 42 -33 15
-891 185 -934 185 -13 0 -34 -10 -47 -23z m306 -157 c10 -12 18 -34 18 -49 l0
-27 223 -43 c122 -24 224 -45 226 -47 7 -7 -93 -166 -113 -179 -19 -12 -40
-10 -171 15 -83 17 -156 30 -162 30 -8 0 -13 -13 -13 -34 0 -18 6 -38 13 -44
6 -5 75 -22 152 -36 164 -32 177 -35 170 -45 -2 -5 -77 6 -167 24 -120 24
-165 38 -176 51 -11 15 -12 52 -7 190 l7 171 -23 17 c-13 9 -36 16 -51 16 -16
0 -28 5 -28 11 0 20 83 3 102 -21z"/>
<path d="M9775 4469 c-26 -132 -46 -242 -44 -244 2 -2 20 -5 39 -7 l34 -3 47
240 c51 254 51 255 -2 255 l-27 0 -47 -241z"/>
<path d="M9914 4676 c-2 -12 -24 -120 -48 -241 -44 -226 -44 -235 -1 -235 18
0 24 21 64 233 25 127 46 237 48 243 2 7 -10 14 -27 16 -25 4 -31 1 -36 -16z"/>
<path d="M10085 4648 c-3 -12 -84 -426 -88 -457 -2 -13 51 -36 61 -27 1 2 24
111 51 242 41 209 45 240 32 246 -26 11 -51 9 -56 -4z"/>
<path d="M10338 4363 c-41 -212 -47 -275 -22 -251 6 7 94 450 94 475 0 7 -6
13 -13 13 -9 0 -27 -72 -59 -237z"/>
<path d="M10450 4568 c-1 -12 -20 -122 -44 -243 -24 -121 -43 -221 -42 -222 1
-1 20 -5 41 -8 l40 -7 47 243 c26 134 46 244 45 245 -1 1 -21 5 -44 9 -40 6
-43 5 -43 -17z"/>
<path d="M10530 4343 c-24 -126 -45 -235 -47 -244 -4 -16 24 -35 35 -24 3 3
27 112 52 243 46 232 47 251 14 252 -6 0 -29 -101 -54 -227z"/>
<path d="M10650 4545 c0 -2 -20 -107 -45 -232 -50 -256 -50 -253 -31 -253 10
0 26 66 60 238 25 132 46 242 46 245 0 4 -7 7 -15 7 -8 0 -15 -2 -15 -5z"/>
<path d="M10739 4537 c0 -1 -22 -110 -48 -242 -41 -202 -46 -241 -34 -248 8
-5 16 -7 18 -5 4 4 95 458 95 475 0 9 -28 27 -31 20z"/>
<path d="M10895 4258 c-33 -172 -43 -244 -36 -251 7 -7 14 -7 20 -1 4 5 27
108 50 229 24 121 44 227 47 236 3 10 -3 18 -15 22 -18 4 -23 -14 -66 -235z"/>
<path d="M10956 4244 c-25 -130 -44 -239 -41 -244 6 -10 54 -19 60 -10 10 16
95 471 90 480 -3 6 -19 10 -34 10 l-29 0 -46 -236z"/>
<path d="M11100 4467 c0 -1 -22 -112 -49 -245 -50 -253 -50 -259 -5 -250 15 2
26 45 64 241 37 189 44 240 33 243 -7 2 -20 6 -28 9 -8 2 -15 3 -15 2z"/>
<path d="M11247 4188 c-46 -241 -47 -266 -12 -255 8 3 108 478 101 483 0 1
-10 4 -21 8 -20 6 -23 -7 -68 -236z"/>
<path d="M11505 4381 c-2 -4 -24 -112 -49 -241 -47 -241 -47 -249 -6 -250 12
0 25 52 59 233 24 127 46 237 48 243 4 12 -45 26 -52 15z"/>
<path d="M11596 4353 c-2 -10 -24 -118 -47 -241 -37 -189 -41 -224 -29 -232 8
-5 16 -7 19 -5 2 3 25 113 51 244 38 197 44 241 32 246 -19 7 -20 7 -26 -12z"/>
<path d="M11652 4312 c-38 -177 -82 -427 -78 -438 3 -8 16 -14 30 -14 23 0 25
6 71 241 26 132 45 242 43 243 -1 2 -15 6 -30 10 -25 6 -27 3 -36 -42z"/>
<path d="M12115 4297 c-2 -6 -24 -114 -48 -240 l-44 -227 26 -6 c14 -3 31 -7
38 -9 7 -2 14 4 17 13 13 47 89 462 85 465 -13 12 -70 15 -74 4z"/>
<path d="M12207 4268 c-14 -58 -88 -451 -85 -453 2 -2 15 -6 30 -10 20 -5 27
-3 31 12 11 36 89 455 85 458 -2 2 -15 6 -29 10 -22 5 -27 3 -32 -17z"/>
<path d="M12336 4024 c-25 -130 -44 -239 -41 -244 3 -4 18 -10 34 -12 l29 -4
47 239 c25 131 45 240 43 242 -2 1 -17 5 -34 8 l-32 6 -46 -235z"/>
<path d="M12675 4178 c-12 -51 -85 -434 -85 -445 0 -10 30 -20 30 -10 0 1 20
105 45 231 24 126 42 233 39 237 -10 16 -24 9 -29 -13z"/>
<path d="M12745 4158 c-6 -28 -72 -369 -80 -419 -7 -36 -6 -36 31 -42 21 -4
41 -2 44 3 3 5 25 111 49 235 48 246 48 245 -11 245 -21 0 -29 -6 -33 -22z"/>
<path d="M12865 4148 c-7 -22 -85 -435 -85 -452 0 -25 39 -20 45 7 13 60 85
433 85 444 0 17 -39 17 -45 1z"/>
<path d="M12945 4137 c-5 -14 -82 -410 -87 -447 -2 -17 2 -25 12 -25 11 0 24
49 55 205 23 113 44 219 48 237 4 23 2 33 -9 37 -8 3 -17 0 -19 -7z"/>
<path d="M9737 4112 c-9 -10 -19 -43 -23 -73 -7 -61 1 -75 53 -85 43 -9 69 20
78 87 7 47 5 55 -15 71 -28 23 -72 23 -93 0z"/>
<path d="M13027 4108 c-3 -13 -24 -119 -47 -237 -33 -171 -39 -216 -28 -222 7
-5 16 -5 20 -1 4 4 25 102 47 217 23 116 44 222 47 238 5 22 2 27 -14 27 -12
0 -22 -9 -25 -22z"/>
<path d="M13130 3883 c-23 -120 -44 -228 -47 -240 -6 -28 23 -33 31 -5 8 25
86 433 86 449 0 7 -6 13 -14 13 -10 0 -25 -59 -56 -217z"/>
<path d="M13191 3862 c-24 -125 -46 -232 -48 -238 -2 -6 5 -14 16 -17 25 -6
18 -28 71 243 46 235 46 240 23 240 -15 0 -25 -34 -62 -228z"/>
<path d="M9976 4058 c-7 -13 -17 -44 -20 -69 -8 -54 12 -80 64 -81 43 -1 58
18 66 86 6 51 5 61 -11 72 -30 22 -82 18 -99 -8z"/>
<path d="M13295 4067 c-2 -6 -24 -114 -48 -239 -46 -242 -46 -238 7 -238 21 0
24 13 68 238 25 130 45 237 44 238 0 1 -16 4 -34 7 -22 5 -34 3 -37 -6z"/>
<path d="M13347 3824 c-48 -246 -48 -253 -6 -254 9 0 19 10 22 23 16 67 88
449 85 452 -2 2 -15 6 -29 10 l-26 7 -46 -238z"/>
<path d="M13586 4003 c-9 -31 -86 -431 -86 -447 0 -22 37 -20 44 2 9 31 86
428 86 445 0 23 -37 22 -44 0z"/>
<path d="M13751 3745 c-25 -129 -43 -237 -40 -239 2 -2 14 -7 26 -10 18 -6 23
-3 28 16 28 127 85 443 81 454 -3 8 -16 14 -28 14 -22 0 -25 -10 -67 -235z"/>
<path d="M13851 3743 c-23 -120 -45 -228 -48 -240 -4 -18 -1 -23 16 -23 12 0
21 1 21 3 0 1 20 105 45 231 25 127 45 233 45 238 0 4 -8 8 -19 8 -16 0 -23
-27 -60 -217z"/>
<path d="M13911 3728 c-24 -122 -45 -230 -47 -240 -4 -12 4 -18 26 -23 17 -4
33 -5 34 -3 4 5 94 473 92 475 -2 2 -16 6 -33 9 l-30 6 -42 -224z"/>
<path d="M10837 3902 c-10 -11 -20 -45 -23 -79 -6 -56 -5 -62 15 -73 38 -20
84 -9 100 24 20 43 2 74 -49 82 -30 5 -40 11 -38 23 5 26 64 27 80 2 15 -25
28 -27 28 -5 0 15 -55 44 -83 44 -8 0 -21 -8 -30 -18z"/>
<path d="M12030 3705 c-5 -13 -12 -47 -16 -75 l-7 -50 39 -16 c67 -28 101 5
103 103 1 49 -16 63 -74 63 -29 0 -37 -5 -45 -25z"/>
<path d="M12294 3683 c-18 -13 -32 -45 -39 -94 -6 -41 -4 -48 16 -63 28 -19
82 -21 97 -3 7 7 17 37 23 66 10 48 9 55 -7 72 -21 21 -73 34 -90 22z"/>
<path d="M13129 3493 c-6 -16 -11 -53 -12 -83 l-2 -55 38 -9 c48 -12 68 -1 81
44 8 28 7 35 -13 51 -13 11 -37 19 -53 19 -23 0 -29 4 -26 17 6 31 88 29 88
-2 0 -8 5 -15 10 -15 18 0 10 29 -12 44 -12 9 -37 16 -55 16 -27 0 -35 -5 -44
-27z"/>
<path d="M10622 3428 c-15 -15 -16 -112 -2 -139 8 -14 21 -19 55 -19 48 0 65
16 65 64 0 36 -33 56 -76 46 -26 -6 -37 -5 -41 5 -7 21 4 33 38 40 22 5 36 2
51 -12 20 -18 20 -18 17 2 -3 16 -13 21 -49 23 -26 2 -50 -2 -58 -10z"/>
<path d="M9756 3357 c-16 -11 -18 -24 -14 -75 2 -34 10 -68 16 -74 15 -15 78
-14 97 2 21 18 20 123 -1 144 -19 19 -74 21 -98 3z"/>
<path d="M9505 3333 c-26 -25 -16 -120 14 -145 27 -21 67 -16 92 13 18 19 16
96 -3 132 -12 23 -80 23 -103 0z"/>
<path d="M2026 5322 c-28 -3 -28 -5 -22 -49 3 -25 6 -56 6 -69 0 -19 5 -24 25
-24 36 0 82 26 90 51 17 52 -34 99 -99 91z"/>
<path d="M2652 5044 c-19 -13 -22 -24 -22 -87 0 -98 14 -117 83 -117 71 0 97
19 97 71 0 37 -2 39 -30 39 -34 0 -40 -15 -10 -23 20 -5 26 -23 12 -43 -11
-17 -86 -26 -104 -11 -21 16 -34 130 -16 144 7 6 32 14 55 18 36 6 43 4 53
-14 6 -12 15 -21 20 -21 14 0 12 34 -2 48 -17 17 -109 15 -136 -4z"/>
<path d="M2525 4958 l6 -83 -71 78 c-40 42 -77 77 -82 77 -7 0 -9 -33 -4 -102
8 -106 11 -122 27 -112 6 3 7 38 3 87 l-7 82 73 -82 c40 -46 77 -80 82 -77 5
3 7 40 3 87 -8 103 -13 127 -26 127 -8 0 -9 -26 -4 -82z"/>
<path d="M5843 4281 c-10 -18 -27 -48 -39 -68 l-21 -36 -43 57 c-52 69 -71 73
-65 14 3 -24 7 -73 11 -110 8 -100 28 -87 22 14 l-5 82 36 -42 c20 -23 42 -42
49 -42 7 0 22 20 34 45 12 25 26 45 30 45 4 0 8 -17 8 -37 0 -58 11 -113 23
-113 12 0 0 201 -13 214 -5 5 -16 -4 -27 -23z"/>
<path d="M5471 4188 c-16 -51 -31 -102 -33 -112 -5 -32 20 -29 27 3 6 30 9 31
59 31 47 0 54 -3 64 -25 11 -25 32 -34 32 -15 0 19 -100 210 -110 210 -5 0
-22 -42 -39 -92z"/>
<path d="M5230 4247 c-24 -12 -25 -17 -25 -95 0 -97 12 -115 74 -114 49 1 77
15 86 43 12 35 -6 140 -26 160 -22 22 -72 25 -109 6z m100 -36 c5 -11 10 -45
10 -75 0 -44 -4 -57 -19 -66 -27 -14 -66 -13 -79 3 -16 21 -25 126 -12 143 19
22 87 18 100 -5z"/>
<path d="M4981 4223 c-23 -19 -25 -31 -23 -109 3 -70 25 -97 80 -96 56 1 79
15 86 54 9 49 -8 139 -30 155 -25 19 -88 16 -113 -4z m110 -40 c5 -15 9 -49 7
-77 -3 -44 -6 -52 -29 -60 -14 -5 -37 -6 -51 -3 -23 6 -26 13 -32 77 -4 38 -4
74 -1 80 3 5 26 10 51 10 39 0 46 -3 55 -27z"/>
<path d="M2094 4322 c-13 -8 -4 -139 9 -134 4 1 21 2 37 2 37 0 70 31 70 65 0
51 -75 94 -116 67z"/>
<path d="M3796 4124 c-19 -18 -20 -47 -5 -76 8 -14 8 -23 0 -31 -17 -17 -13
-62 7 -80 21 -19 92 -23 123 -7 14 8 19 21 19 50 0 21 -4 41 -9 45 -5 3 -7 20
-4 39 9 55 -9 76 -67 76 -31 0 -54 -6 -64 -16z"/>
<path d="M3409 4089 c-18 -18 -19 -28 -13 -92 4 -42 13 -79 22 -89 20 -23 89
-24 121 -2 21 15 23 22 19 96 -4 93 -16 108 -85 108 -30 0 -49 -6 -64 -21z
m104 -11 c19 -15 34 -125 19 -146 -11 -17 -73 -25 -91 -13 -10 7 -15 31 -15
82 -1 69 0 73 24 80 37 11 45 10 63 -3z"/>
<path d="M2887 4063 l-38 -4 6 -77 c8 -108 14 -142 25 -142 6 0 10 20 10 45 0
42 2 45 28 45 66 0 95 29 85 83 -6 30 -38 58 -63 55 -8 -1 -32 -3 -53 -5z"/>
<path d="M2428 4019 c-24 -9 -28 -16 -28 -49 0 -49 19 -64 84 -65 49 0 51 -1
54 -29 4 -35 -10 -46 -65 -46 -30 0 -45 5 -52 17 -12 23 -25 11 -16 -16 8 -25
50 -34 105 -22 47 11 60 23 60 62 0 46 -21 62 -83 61 -52 0 -58 2 -63 23 -3
13 -3 29 1 34 9 15 88 14 103 -1 16 -16 29 -1 16 20 -13 20 -76 26 -116 11z"/>
</g>
</svg>
